2.8Hzlow3min_grf.mot
version=1
nRows=12
nColumns 19
inDegrees=yes
endheader
time	1_ground_force_vx	1_ground_force_vy	1_ground_force_vz	1_ground_force_px	1_ground_force_py	1_ground_force_pz	1_ground_torque_x	1_ground_torque_y	1_ground_torque_z	2_ground_force_vx	2_ground_force_vy	2_ground_force_vz	2_ground_force_px	2_ground_force_py	2_ground_force_pz	2_ground_torque_x	2_ground_torque_y	2_ground_torque_z
            0.005000	           30.466534	          998.769786	          -59.305461	           -0.262970	            0.006235	           -0.409286	            0.009095	            0.298151	           -0.017704	           -8.416681	          926.157804	           80.129149	           -0.209371	            0.005785	           -0.713674	            0.010062	           -1.107213	           -0.095794
            0.005500	           30.466747	          998.228823	          -59.261920	           -0.262923	            0.006235	           -0.409383	            0.012163	            0.398525	           -0.023659	           -8.835712	          925.420054	           80.032844	           -0.209205	            0.005785	           -0.713596	            0.013321	           -1.395243	           -0.120664
            0.006000	           30.147118	          997.505732	          -58.805657	           -0.262919	            0.006234	           -0.409268	            0.012818	            0.424107	           -0.025002	           -9.539996	          925.787471	           79.565175	           -0.209119	            0.005786	           -0.713804	            0.016000	           -1.552720	           -0.133446
            0.006500	           29.734889	          996.784197	          -58.716013	           -0.262805	            0.006235	           -0.409375	            0.013587	            0.455481	           -0.026830	          -10.197264	          926.153719	           79.472912	           -0.209231	            0.005786	           -0.713769	            0.017073	           -1.550675	           -0.133063
            0.007000	           29.049948	          995.698206	          -57.710113	           -0.262699	            0.006235	           -0.409463	            0.012714	            0.435792	           -0.025258	          -11.080246	          924.126068	           79.137559	           -0.208947	            0.005786	           -0.713547	            0.017125	           -1.428271	           -0.122310
            0.007500	           28.638923	          994.614112	          -57.163457	           -0.262614	            0.006235	           -0.409456	            0.013289	            0.461503	           -0.026524	          -11.362071	          924.309635	           78.997559	           -0.208860	            0.005786	           -0.713592	            0.016061	           -1.306582	           -0.111669
            0.008000	           27.814417	          994.072203	          -56.934452	           -0.262721	            0.006235	           -0.409473	            0.013751	            0.491462	           -0.028148	          -11.782138	          923.759099	           78.057205	           -0.208829	            0.005786	           -0.713520	            0.016382	           -1.284435	           -0.108534
            0.008500	           27.265311	          993.529757	          -56.568558	           -0.262535	            0.006235	           -0.409391	            0.012771	            0.465365	           -0.026496	          -12.058544	          922.468703	           78.146581	           -0.208757	            0.005787	           -0.713555	            0.016623	           -1.271684	           -0.107730
            0.009000	           27.265966	          991.185880	          -56.486895	           -0.262486	            0.006236	           -0.409523	            0.014780	            0.537301	           -0.030620	          -12.569946	          921.362211	           78.049002	           -0.208694	            0.005787	           -0.713612	            0.019572	           -1.434618	           -0.121527
            0.009500	           26.808108	          989.923372	          -56.353596	           -0.262465	            0.006236	           -0.409581	            0.015286	            0.564449	           -0.032133	          -13.220692	          919.888056	           77.668600	           -0.208535	            0.005787	           -0.713417	            0.023627	           -1.643972	           -0.138805
            0.010000	           26.259718	          989.199450	          -55.713340	           -0.262322	            0.006236	           -0.409573	            0.014206	            0.535142	           -0.030140	          -13.872746	          918.781893	           77.336432	           -0.208425	            0.005787	           -0.713373	            0.024903	           -1.649306	           -0.138827
            0.010500	           25.848274	          987.935847	          -55.350879	           -0.262126	            0.006236	           -0.409507	            0.015333	            0.586038	           -0.032834	          -14.476622	          917.307740	           77.002945	           -0.208220	            0.005787	           -0.713222	            0.022793	           -1.444260	           -0.121238
